<mxfile host="65bd71144e">
    <diagram id="AH7vA0_U9CElIipDJS3K" name="Suppression via un lien">
        <mxGraphModel dx="689" dy="236" grid="1" gridSize="10" guides="1" tooltips="1" connect="1" arrows="1" fold="1" page="1" pageScale="1" pageWidth="827" pageHeight="1169" math="0" shadow="0">
            <root>
                <mxCell id="0"/>
                <mxCell id="1" parent="0"/>
                <mxCell id="2" value="http://avis.test/delete/avis?id=2" style="text;html=1;strokeColor=none;fillColor=none;align=center;verticalAlign=middle;whiteSpace=wrap;rounded=0;" parent="1" vertex="1">
                    <mxGeometry x="320" y="30" width="280" height="30" as="geometry"/>
                </mxCell>
                <mxCell id="3" value="Controller&lt;br&gt;AvisController" style="rounded=0;whiteSpace=wrap;html=1;" parent="1" vertex="1">
                    <mxGeometry x="400" y="90" width="120" height="60" as="geometry"/>
                </mxCell>
                <mxCell id="4" value="" style="endArrow=classic;html=1;exitX=0.5;exitY=1;exitDx=0;exitDy=0;entryX=0.5;entryY=0;entryDx=0;entryDy=0;" parent="1" source="2" target="3" edge="1">
                    <mxGeometry width="50" height="50" relative="1" as="geometry">
                        <mxPoint x="430" y="160" as="sourcePoint"/>
                        <mxPoint x="480" y="110" as="targetPoint"/>
                    </mxGeometry>
                </mxCell>
                <mxCell id="5" value="Méthode&lt;br&gt;delete()" style="rounded=1;whiteSpace=wrap;html=1;" parent="1" vertex="1">
                    <mxGeometry x="400" y="180" width="120" height="60" as="geometry"/>
                </mxCell>
                <mxCell id="6" value="" style="endArrow=classic;html=1;exitX=0.5;exitY=1;exitDx=0;exitDy=0;entryX=0.5;entryY=0;entryDx=0;entryDy=0;" parent="1" source="3" target="5" edge="1">
                    <mxGeometry width="50" height="50" relative="1" as="geometry">
                        <mxPoint x="430" y="160" as="sourcePoint"/>
                        <mxPoint x="480" y="110" as="targetPoint"/>
                    </mxGeometry>
                </mxCell>
                <mxCell id="7" value="Repository&lt;br&gt;AvisRepository" style="shape=cylinder3;whiteSpace=wrap;html=1;boundedLbl=1;backgroundOutline=1;size=15;" parent="1" vertex="1">
                    <mxGeometry x="640" y="170" width="130" height="80" as="geometry"/>
                </mxCell>
                <mxCell id="8" value="" style="endArrow=classic;html=1;exitX=1.004;exitY=0.673;exitDx=0;exitDy=0;exitPerimeter=0;" parent="1" source="5" edge="1">
                    <mxGeometry width="50" height="50" relative="1" as="geometry">
                        <mxPoint x="500" y="180" as="sourcePoint"/>
                        <mxPoint x="640" y="220" as="targetPoint"/>
                    </mxGeometry>
                </mxCell>
                <mxCell id="9" value="ID" style="text;html=1;strokeColor=none;fillColor=none;align=center;verticalAlign=middle;whiteSpace=wrap;rounded=0;" parent="1" vertex="1">
                    <mxGeometry x="550" y="220" width="60" height="30" as="geometry"/>
                </mxCell>
                <mxCell id="10" value="" style="endArrow=classic;html=1;entryX=1.008;entryY=0.321;entryDx=0;entryDy=0;entryPerimeter=0;" parent="1" target="5" edge="1">
                    <mxGeometry width="50" height="50" relative="1" as="geometry">
                        <mxPoint x="640" y="199" as="sourcePoint"/>
                        <mxPoint x="550" y="130" as="targetPoint"/>
                    </mxGeometry>
                </mxCell>
                <mxCell id="11" value="Success ?" style="text;html=1;strokeColor=none;fillColor=none;align=center;verticalAlign=middle;whiteSpace=wrap;rounded=0;" parent="1" vertex="1">
                    <mxGeometry x="550" y="170" width="60" height="30" as="geometry"/>
                </mxCell>
                <mxCell id="12" value="Redirige l'utilisateur vers&lt;br&gt;une nouvelle route" style="shape=parallelogram;perimeter=parallelogramPerimeter;whiteSpace=wrap;html=1;fixedSize=1;" parent="1" vertex="1">
                    <mxGeometry x="370" y="300" width="180" height="60" as="geometry"/>
                </mxCell>
                <mxCell id="13" value="" style="endArrow=classic;html=1;entryX=0.5;entryY=0;entryDx=0;entryDy=0;exitX=0.5;exitY=1;exitDx=0;exitDy=0;" parent="1" source="5" target="12" edge="1">
                    <mxGeometry width="50" height="50" relative="1" as="geometry">
                        <mxPoint x="480" y="240" as="sourcePoint"/>
                        <mxPoint x="530" y="190" as="targetPoint"/>
                    </mxGeometry>
                </mxCell>
            </root>
        </mxGraphModel>
    </diagram>
    <diagram id="ClzNf23DG7phE03MtH_l" name="Edition">
        <mxGraphModel dx="844" dy="323" grid="1" gridSize="10" guides="1" tooltips="1" connect="1" arrows="1" fold="1" page="1" pageScale="1" pageWidth="827" pageHeight="1169" math="0" shadow="0">
            <root>
                <mxCell id="as7yBR0I-lN4vT7VXTvD-0"/>
                <mxCell id="as7yBR0I-lN4vT7VXTvD-1" parent="as7yBR0I-lN4vT7VXTvD-0"/>
                <mxCell id="IAqO_6y6blU7-zXeKRuL-0" value="http://avis.test/edit/avis?id=1" style="text;html=1;strokeColor=none;fillColor=none;align=center;verticalAlign=middle;whiteSpace=wrap;rounded=0;" parent="as7yBR0I-lN4vT7VXTvD-1" vertex="1">
                    <mxGeometry x="320" y="30" width="280" height="30" as="geometry"/>
                </mxCell>
                <mxCell id="IAqO_6y6blU7-zXeKRuL-1" value="Controller&lt;br&gt;AvisController" style="rounded=0;whiteSpace=wrap;html=1;" parent="as7yBR0I-lN4vT7VXTvD-1" vertex="1">
                    <mxGeometry x="400" y="90" width="120" height="60" as="geometry"/>
                </mxCell>
                <mxCell id="IAqO_6y6blU7-zXeKRuL-2" value="" style="endArrow=classic;html=1;exitX=0.5;exitY=1;exitDx=0;exitDy=0;entryX=0.5;entryY=0;entryDx=0;entryDy=0;" parent="as7yBR0I-lN4vT7VXTvD-1" source="IAqO_6y6blU7-zXeKRuL-0" target="IAqO_6y6blU7-zXeKRuL-1" edge="1">
                    <mxGeometry width="50" height="50" relative="1" as="geometry">
                        <mxPoint x="430" y="160" as="sourcePoint"/>
                        <mxPoint x="480" y="110" as="targetPoint"/>
                    </mxGeometry>
                </mxCell>
                <mxCell id="IAqO_6y6blU7-zXeKRuL-3" value="Méthode&lt;br&gt;edit()" style="rounded=1;whiteSpace=wrap;html=1;" parent="as7yBR0I-lN4vT7VXTvD-1" vertex="1">
                    <mxGeometry x="400" y="190" width="120" height="60" as="geometry"/>
                </mxCell>
                <mxCell id="IAqO_6y6blU7-zXeKRuL-4" value="" style="endArrow=classic;html=1;exitX=0.5;exitY=1;exitDx=0;exitDy=0;entryX=0.5;entryY=0;entryDx=0;entryDy=0;" parent="as7yBR0I-lN4vT7VXTvD-1" source="IAqO_6y6blU7-zXeKRuL-1" target="IAqO_6y6blU7-zXeKRuL-3" edge="1">
                    <mxGeometry width="50" height="50" relative="1" as="geometry">
                        <mxPoint x="430" y="160" as="sourcePoint"/>
                        <mxPoint x="480" y="110" as="targetPoint"/>
                    </mxGeometry>
                </mxCell>
                <mxCell id="IAqO_6y6blU7-zXeKRuL-11" value="" style="endArrow=classic;html=1;entryX=0.5;entryY=0;entryDx=0;entryDy=0;exitX=0.5;exitY=1;exitDx=0;exitDy=0;" parent="as7yBR0I-lN4vT7VXTvD-1" source="IAqO_6y6blU7-zXeKRuL-3" edge="1">
                    <mxGeometry width="50" height="50" relative="1" as="geometry">
                        <mxPoint x="480" y="240" as="sourcePoint"/>
                        <mxPoint x="460" y="300" as="targetPoint"/>
                    </mxGeometry>
                </mxCell>
                <mxCell id="IAqO_6y6blU7-zXeKRuL-12" value="Template contenant un formulaire" style="ellipse;whiteSpace=wrap;html=1;" parent="as7yBR0I-lN4vT7VXTvD-1" vertex="1">
                    <mxGeometry x="400" y="300" width="120" height="80" as="geometry"/>
                </mxCell>
                <mxCell id="5Z-wl1ys5AoMUQvCN2Ij-0" value="AvisRepository&lt;br&gt;Sélectionner un avis selon son ID" style="shape=cylinder3;whiteSpace=wrap;html=1;boundedLbl=1;backgroundOutline=1;size=15;" vertex="1" parent="as7yBR0I-lN4vT7VXTvD-1">
                    <mxGeometry x="650" y="180" width="150" height="80" as="geometry"/>
                </mxCell>
                <mxCell id="5Z-wl1ys5AoMUQvCN2Ij-1" value="" style="endArrow=classic;html=1;" edge="1" parent="as7yBR0I-lN4vT7VXTvD-1">
                    <mxGeometry width="50" height="50" relative="1" as="geometry">
                        <mxPoint x="520" y="210" as="sourcePoint"/>
                        <mxPoint x="650" y="210" as="targetPoint"/>
                    </mxGeometry>
                </mxCell>
                <mxCell id="5Z-wl1ys5AoMUQvCN2Ij-2" value="ID" style="text;html=1;strokeColor=none;fillColor=none;align=center;verticalAlign=middle;whiteSpace=wrap;rounded=0;" vertex="1" parent="as7yBR0I-lN4vT7VXTvD-1">
                    <mxGeometry x="550" y="180" width="60" height="30" as="geometry"/>
                </mxCell>
                <mxCell id="5Z-wl1ys5AoMUQvCN2Ij-3" value="" style="endArrow=classic;html=1;" edge="1" parent="as7yBR0I-lN4vT7VXTvD-1">
                    <mxGeometry width="50" height="50" relative="1" as="geometry">
                        <mxPoint x="650" y="230" as="sourcePoint"/>
                        <mxPoint x="520" y="230" as="targetPoint"/>
                    </mxGeometry>
                </mxCell>
                <mxCell id="5Z-wl1ys5AoMUQvCN2Ij-4" value="Retourne l'avis" style="text;html=1;strokeColor=none;fillColor=none;align=center;verticalAlign=middle;whiteSpace=wrap;rounded=0;" vertex="1" parent="as7yBR0I-lN4vT7VXTvD-1">
                    <mxGeometry x="550" y="240" width="60" height="30" as="geometry"/>
                </mxCell>
            </root>
        </mxGraphModel>
    </diagram>
</mxfile>